<svg width="20" height="20" viewBox="0 0 20 20" fill="none" xmlns="http://www.w3.org/2000/svg">
<path d="M9.16675 10.8333H5.00008C4.76397 10.8333 4.5662 10.7533 4.40675 10.5933C4.24731 10.4333 4.16731 10.2355 4.16675 9.99999C4.1662 9.76444 4.2462 9.56666 4.40675 9.40666C4.56731 9.24666 4.76508 9.16666 5.00008 9.16666H9.16675V4.99999C9.16675 4.76388 9.24675 4.5661 9.40675 4.40666C9.56675 4.24722 9.76453 4.16721 10.0001 4.16666C10.2356 4.1661 10.4337 4.2461 10.5943 4.40666C10.7548 4.56721 10.8345 4.76499 10.8334 4.99999V9.16666H15.0001C15.2362 9.16666 15.4343 9.24666 15.5943 9.40666C15.7543 9.56666 15.834 9.76444 15.8334 9.99999C15.8329 10.2355 15.7529 10.4336 15.5934 10.5942C15.434 10.7547 15.2362 10.8344 15.0001 10.8333H10.8334V15C10.8334 15.2361 10.7534 15.4342 10.5934 15.5942C10.4334 15.7542 10.2356 15.8339 10.0001 15.8333C9.76453 15.8328 9.56675 15.7528 9.40675 15.5933C9.24675 15.4339 9.16675 15.2361 9.16675 15V10.8333Z" fill="white"/>
</svg>
