<svg width="24" height="24" viewBox="0 0 24 24" fill="none" xmlns="http://www.w3.org/2000/svg">
<path d="M12 6.00001V20M5.98 3.28501C9.322 3.92201 11.313 5.25201 12 6.01601C12.687 5.25201 14.678 3.92201 18.02 3.28601C19.712 2.96301 20.558 2.80201 21.28 3.42001C22 4.03701 22 5.04001 22 7.04601V14.255C22 16.089 22 17.006 21.537 17.579C21.075 18.151 20.057 18.345 18.019 18.733C16.204 19.079 14.787 19.629 13.761 20.183C12.751 20.728 12.247 21 12 21C11.753 21 11.248 20.728 10.24 20.183C9.213 19.63 7.796 19.079 5.98 18.733C3.944 18.345 2.925 18.151 2.463 17.579C2 17.006 2 16.089 2 14.255V7.04601C2 5.04001 2 4.03701 2.72 3.42001C3.442 2.80201 4.288 2.96301 5.98 3.28501Z" stroke="white" stroke-width="1.5" stroke-linecap="round" stroke-linejoin="round"/>
</svg>
