<svg width="16" height="16" viewBox="0 0 16 16" fill="none" xmlns="http://www.w3.org/2000/svg">
<g clip-path="url(#clip0_59_5448)">
<path d="M14.6666 7.99992C14.6666 11.6819 11.6819 14.6666 7.99992 14.6666C4.31792 14.6666 1.33325 11.6819 1.33325 7.99992C1.33325 4.31792 4.31792 1.33325 7.99992 1.33325C11.6819 1.33325 14.6666 4.31792 14.6666 7.99992Z" stroke="#9397A2" stroke-width="1.5" stroke-linecap="round" stroke-linejoin="round"/>
<path d="M9.99988 9.33325C9.99988 9.68687 9.8594 10.026 9.60935 10.2761C9.3593 10.5261 9.02017 10.6666 8.66654 10.6666H7.99988C7.37854 10.6666 7.06788 10.6666 6.82321 10.5653C6.66133 10.4982 6.51425 10.4 6.39036 10.2761C6.26648 10.1522 6.16822 10.0051 6.10121 9.84325C5.99988 9.59859 5.99988 9.28792 5.99988 8.66659V7.33325C5.99988 6.71192 5.99988 6.40125 6.10121 6.15659C6.16822 5.99471 6.26648 5.84762 6.39036 5.72373C6.51425 5.59985 6.66133 5.50159 6.82321 5.43459C7.06788 5.33325 7.37854 5.33325 7.99988 5.33325H8.66654C9.02017 5.33325 9.3593 5.47373 9.60935 5.72378C9.8594 5.97383 9.99988 6.31296 9.99988 6.66659" stroke="#9397A2" stroke-width="1.5" stroke-linecap="round" stroke-linejoin="round"/>
</g>
<defs>
<clipPath id="clip0_59_5448">
<rect width="16" height="16" fill="white"/>
</clipPath>
</defs>
</svg>
