<svg width="22" height="22" viewBox="0 0 22 22" fill="none" xmlns="http://www.w3.org/2000/svg">
<path d="M16.5001 1.83331V3.66665M5.50008 1.83331V3.66665M10.9964 11.9166H11.0037M10.9964 15.5833H11.0037M14.6585 11.9166H14.6667M7.33341 11.9166H7.34166M7.33341 15.5833H7.34166M3.20841 7.33331H18.7917M2.75008 7.33331H19.2501M2.29175 11.2227C2.29175 7.22881 2.29175 5.2314 3.43941 3.99023C4.58708 2.74998 6.43508 2.74998 10.1292 2.74998H11.8709C15.5651 2.74998 17.4131 2.74998 18.5607 3.99115C19.7084 5.2314 19.7084 7.22881 19.7084 11.2236V11.6939C19.7084 15.6878 19.7084 17.6852 18.5607 18.9264C17.4131 20.1666 15.5651 20.1666 11.8709 20.1666H10.1292C6.43508 20.1666 4.58708 20.1666 3.43941 18.9255C2.29175 17.6852 2.29175 15.6878 2.29175 11.693V11.2227Z" stroke="#9397A2" stroke-width="1.5" stroke-linecap="round" stroke-linejoin="round"/>
</svg>
