<svg width="20" height="20" viewBox="0 0 20 20" fill="none" xmlns="http://www.w3.org/2000/svg">
<path d="M13.5117 4.15166L14.6801 2.98416C14.9898 2.67441 15.4099 2.5004 15.848 2.5004C16.2861 2.5004 16.7062 2.67441 17.0159 2.98416C17.3257 3.29391 17.4997 3.71403 17.4997 4.15208C17.4997 4.59013 17.3257 5.01025 17.0159 5.32L15.8484 6.48833M13.5117 4.15166L9.15008 8.51333C8.27925 9.385 7.84341 9.82 7.54675 10.3508C7.25008 10.8817 6.95175 12.1342 6.66675 13.3333C7.86508 13.0483 9.11842 12.75 9.64925 12.4533C10.1801 12.1567 10.6159 11.7208 11.4867 10.85L15.8484 6.48833M13.5117 4.15166L15.8484 6.48833" stroke="#9397A2" stroke-width="1.5" stroke-linecap="round" stroke-linejoin="round"/>
<path d="M17.5 10C17.5 13.5358 17.5 15.3033 16.4017 16.4017C15.3033 17.5 13.535 17.5 10 17.5C6.465 17.5 4.69667 17.5 3.59833 16.4017C2.5 15.3033 2.5 13.535 2.5 10C2.5 6.465 2.5 4.69667 3.59833 3.59833C4.69667 2.5 6.465 2.5 10 2.5" stroke="#9397A2" stroke-width="1.5" stroke-linecap="round" stroke-linejoin="round"/>
</svg>
