<svg width="24" height="24" viewBox="0 0 24 24" fill="none" xmlns="http://www.w3.org/2000/svg">
<path d="M12 12V18M12 12C15.866 12 19 8.883 19 5.038C19 4.938 18.998 4.838 18.994 4.738C18.951 3.738 18.93 3.238 18.252 2.619C17.574 2 16.825 2 15.324 2H8.676C7.176 2 6.425 2 5.748 2.62C5.071 3.238 5.049 3.738 5.006 4.737C5.002 4.837 5 4.93733 5 5.038C5 8.883 8.134 12 12 12ZM12 18C10.326 18 8.87 19.012 8.118 20.505C7.758 21.218 8.274 22 8.958 22H15.041C15.726 22 16.241 21.218 15.882 20.505C15.13 19.012 13.674 18 12 18ZM5 5H3.985C2.998 5 2.505 5 2.2 5.37C1.895 5.741 1.985 6.156 2.164 6.986C2.504 8.57 3.245 9.963 4.249 11M19 5H20.015C21.002 5 21.495 5 21.8 5.37C22.105 5.741 22.015 6.156 21.837 6.986C21.495 8.57 20.755 9.963 19.75 11" stroke="white" stroke-width="1.5" stroke-linecap="round" stroke-linejoin="round"/>
</svg>
