<svg width="32" height="32" viewBox="0 0 32 32" fill="none" xmlns="http://www.w3.org/2000/svg">
<path d="M20 23.5C19.9013 25.9693 17.844 28.0653 15.088 27.9986C14.4467 27.9826 13.6533 27.7586 12.068 27.312C8.25333 26.236 4.94133 24.4266 4.14667 20.3746C4 19.632 4 18.7933 4 17.116V14.884C4 13.208 4 12.3693 4.14667 11.624C4.94133 7.5733 8.25333 5.76397 12.068 4.68797C13.6547 4.2413 14.4467 4.0173 15.088 4.0013C17.844 3.93464 19.9013 6.03064 20 8.49997M28 16H13.3333M28 16C28 15.0666 25.3413 13.3226 24.6667 12.6666M28 16C28 16.9333 25.3413 18.6773 24.6667 19.3333" stroke="white" stroke-width="2" stroke-linecap="round" stroke-linejoin="round"/>
</svg>
