<svg width="32" height="32" viewBox="0 0 32 32" fill="none" xmlns="http://www.w3.org/2000/svg">
<path d="M6.87734 15.3214C6.78 17.1827 6.892 19.164 5.22934 20.4107C4.84708 20.6968 4.53688 21.0681 4.32346 21.4952C4.11004 21.9223 3.99928 22.3933 4 22.8707C4 24.2001 5.04267 25.3334 6.4 25.3334H25.6C26.9573 25.3334 28 24.2001 28 22.8707C28 21.9027 27.544 20.9907 26.7707 20.4107C25.108 19.164 25.22 17.1827 25.1227 15.3214C25.0027 12.9828 23.9892 10.7797 22.2915 9.16685C20.5938 7.55404 18.3416 6.65479 16 6.65479C13.6584 6.65479 11.4062 7.55404 9.70848 9.16685C8.01081 10.7797 6.99732 12.9828 6.87734 15.3214Z" stroke="white" stroke-width="2" stroke-linecap="round" stroke-linejoin="round"/>
<path d="M20 25.3334C20 26.3943 19.5786 27.4117 18.8284 28.1618C18.0783 28.912 17.0609 29.3334 16 29.3334C14.9391 29.3334 13.9217 28.912 13.1716 28.1618C12.4214 27.4117 12 26.3943 12 25.3334M14 4.16675C14 5.27075 14.896 6.66675 16 6.66675C17.104 6.66675 18 5.27075 18 4.16675C18 3.06275 17.104 2.66675 16 2.66675C14.896 2.66675 14 3.06275 14 4.16675Z" stroke="white" stroke-width="2" stroke-linecap="round" stroke-linejoin="round"/>
</svg>
