<svg width="24" height="24" viewBox="0 0 24 24" fill="none" xmlns="http://www.w3.org/2000/svg">
<path d="M21.318 7.14102L20.824 6.28502C20.451 5.63702 20.264 5.31302 19.946 5.18402C19.629 5.05402 19.27 5.15702 18.551 5.36002L17.331 5.70402C16.872 5.81002 16.391 5.75002 15.973 5.53402L15.636 5.34002C15.277 5.10994 15.0009 4.77112 14.848 4.37302L14.514 3.37502C14.294 2.71502 14.184 2.38502 13.923 2.19702C13.662 2.00702 13.314 2.00702 12.62 2.00702H11.505C10.811 2.00702 10.464 2.00702 10.202 2.19702C9.941 2.38502 9.832 2.71502 9.612 3.37502L9.278 4.37302C9.12488 4.77126 8.84841 5.1101 8.489 5.34002L8.152 5.53502C7.734 5.75002 7.252 5.81002 6.794 5.70502L5.574 5.36002C4.855 5.15702 4.496 5.05502 4.179 5.18402C3.861 5.31302 3.674 5.63702 3.301 6.28402L2.808 7.14102C2.458 7.74902 2.283 8.05202 2.317 8.37502C2.351 8.69902 2.585 8.95902 3.053 9.48002L4.084 10.633C4.336 10.952 4.515 11.508 4.515 12.008C4.515 12.508 4.336 13.064 4.085 13.383L3.053 14.535C2.585 15.056 2.351 15.317 2.317 15.64C2.283 15.963 2.457 16.267 2.807 16.874L3.301 17.731C3.674 18.378 3.861 18.702 4.179 18.831C4.497 18.96 4.855 18.859 5.574 18.655L6.794 18.311C7.25289 18.206 7.73412 18.2662 8.153 18.481L8.489 18.675C8.849 18.905 9.125 19.245 9.277 19.643L9.611 20.64C9.831 21.3 9.941 21.63 10.202 21.82C10.464 22.008 10.811 22.008 11.505 22.008H12.62C13.314 22.008 13.662 22.008 13.923 21.819C14.184 21.63 14.294 21.3 14.513 20.64L14.848 19.643C15 19.244 15.276 18.905 15.636 18.675L15.972 18.481C16.392 18.266 16.872 18.205 17.332 18.311L18.552 18.655C19.27 18.859 19.629 18.961 19.946 18.832C20.264 18.702 20.451 18.378 20.824 17.731L21.317 16.874C21.667 16.267 21.842 15.964 21.808 15.64C21.774 15.316 21.54 15.056 21.072 14.535L20.041 13.383C19.789 13.063 19.61 12.508 19.61 12.008C19.61 11.508 19.789 10.952 20.04 10.633L21.072 9.48002C21.54 8.96002 21.774 8.69902 21.808 8.37502C21.842 8.05102 21.668 7.74902 21.318 7.14102Z" stroke="white" stroke-width="1.5" stroke-linecap="round" stroke-linejoin="round"/>
<path d="M15.52 12C15.52 12.9283 15.1513 13.8185 14.4949 14.4749C13.8385 15.1313 12.9483 15.5 12.02 15.5C11.0917 15.5 10.2015 15.1313 9.54513 14.4749C8.88875 13.8185 8.52 12.9283 8.52 12C8.52 11.0717 8.88875 10.1815 9.54513 9.52513C10.2015 8.86875 11.0917 8.5 12.02 8.5C12.9483 8.5 13.8385 8.86875 14.4949 9.52513C15.1513 10.1815 15.52 11.0717 15.52 12Z" stroke="white" stroke-width="1.5" stroke-linecap="round" stroke-linejoin="round"/>
</svg>
