<svg width="24" height="24" viewBox="0 0 24 24" fill="none" xmlns="http://www.w3.org/2000/svg">
<path d="M12 16.5V14.5M7.5 9V6.5C7.5 5.30653 7.97411 4.16193 8.81802 3.31802C9.66193 2.47411 10.8065 2 12 2C13.96 2 15.5 3.5 16 5M4.268 18.845C4.493 20.515 5.876 21.824 7.56 21.901C8.976 21.966 10.415 22 12 22C13.585 22 15.024 21.966 16.44 21.9C18.124 21.824 19.507 20.515 19.732 18.845C19.879 17.755 20 16.638 20 15.5C20 14.362 19.879 13.245 19.732 12.155C19.507 10.485 18.124 9.176 16.44 9.099C14.961 9.03141 13.4806 8.9984 12 9C10.415 9 8.976 9.034 7.56 9.1C5.876 9.176 4.493 10.485 4.268 12.155C4.12 13.245 4 14.362 4 15.5C4 16.638 4.121 17.755 4.268 18.845Z" stroke="black" stroke-width="1.5" stroke-linecap="round" stroke-linejoin="round"/>
</svg>
