<svg width="20" height="20" viewBox="0 0 20 20" fill="none" xmlns="http://www.w3.org/2000/svg">
<path d="M10 19.1667C9.65833 19.1667 9.375 18.8833 9.375 18.5417V16.6667H7.5C7.15833 16.6667 6.875 16.3833 6.875 16.0417C6.875 15.7 7.15833 15.4167 7.5 15.4167H9.375V12.4667C6.56667 12.1583 4.375 9.76667 4.375 6.875C4.375 3.775 6.9 1.25 10 1.25C13.1 1.25 15.625 3.775 15.625 6.875C15.625 9.76667 13.4333 12.15 10.625 12.4667V15.4167H12.5C12.8417 15.4167 13.125 15.7 13.125 16.0417C13.125 16.3833 12.8417 16.6667 12.5 16.6667H10.625V18.5417C10.625 18.8833 10.3417 19.1667 10 19.1667ZM10 2.5C9.42547 2.5 8.85656 2.61316 8.32576 2.83303C7.79496 3.05289 7.31266 3.37515 6.90641 3.78141C6.50015 4.18766 6.17789 4.66996 5.95803 5.20076C5.73816 5.73156 5.625 6.30047 5.625 6.875C5.625 7.44953 5.73816 8.01844 5.95803 8.54924C6.17789 9.08004 6.50015 9.56234 6.90641 9.96859C7.31266 10.3748 7.79496 10.6971 8.32576 10.917C8.85656 11.1368 9.42547 11.25 10 11.25C10.5745 11.25 11.1434 11.1368 11.6742 10.917C12.205 10.6971 12.6873 10.3748 13.0936 9.96859C13.4998 9.56234 13.8221 9.08004 14.042 8.54924C14.2618 8.01844 14.375 7.44953 14.375 6.875C14.375 6.30047 14.2618 5.73156 14.042 5.20076C13.8221 4.66996 13.4998 4.18766 13.0936 3.78141C12.6873 3.37515 12.205 3.05289 11.6742 2.83303C11.1434 2.61316 10.5745 2.5 10 2.5Z" fill="#9397A2"/>
</svg>
