<svg width="20" height="20" viewBox="0 0 20 20" fill="none" xmlns="http://www.w3.org/2000/svg">
<path fill-rule="evenodd" clip-rule="evenodd" d="M8.99083 12.1C9.98587 12.8989 11.2239 13.334 12.5 13.3333C15.6 13.3333 18.125 10.8083 18.125 7.70831C18.125 4.60831 15.6 2.08331 12.5 2.08331C9.4 2.08331 6.875 4.60831 6.875 7.70831C6.875 9.03331 7.33667 10.2541 8.1075 11.2166L3.18333 16.1416C3.125 15.75 3.125 15.1916 3.125 14.375V12.7083C3.125 12.3666 2.84167 12.0833 2.5 12.0833C2.15833 12.0833 1.875 12.3666 1.875 12.7083V14.375C1.875 16.0666 1.875 16.9916 2.54167 17.6583C3.21667 18.3333 4.14167 18.3333 5.83333 18.3333H7.5C7.84167 18.3333 8.125 18.05 8.125 17.7083C8.125 17.3666 7.84167 17.0833 7.5 17.0833H5.83167C5.01583 17.0833 4.45833 17.0833 4.06667 17.025L8.99083 12.1ZM8.125 7.70831C8.125 7.13378 8.23816 6.56487 8.45803 6.03407C8.67789 5.50327 9.00015 5.02098 9.40641 4.61472C9.81266 4.20846 10.295 3.8862 10.8258 3.66634C11.3566 3.44648 11.9255 3.33331 12.5 3.33331C13.0745 3.33331 13.6434 3.44648 14.1742 3.66634C14.705 3.8862 15.1873 4.20846 15.5936 4.61472C15.9998 5.02098 16.3221 5.50327 16.542 6.03407C16.7618 6.56487 16.875 7.13378 16.875 7.70831C16.875 8.28285 16.7618 8.85175 16.542 9.38255C16.3221 9.91335 15.9998 10.3956 15.5936 10.8019C15.1873 11.2082 14.705 11.5304 14.1742 11.7503C13.6434 11.9701 13.0745 12.0833 12.5 12.0833C11.9255 12.0833 11.3566 11.9701 10.8258 11.7503C10.295 11.5304 9.81266 11.2082 9.40641 10.8019C9.00015 10.3956 8.67789 9.91335 8.45803 9.38255C8.23816 8.85175 8.125 8.28285 8.125 7.70831Z" fill="#9397A2"/>
</svg>
