<svg width="24" height="24" viewBox="0 0 24 24" fill="none" xmlns="http://www.w3.org/2000/svg">
<path d="M20.774 18C21.524 18 22.119 17.529 22.654 16.87C23.75 15.52 21.951 14.44 21.265 13.913C20.568 13.376 19.789 13.071 19 13M18 11C18.663 11 19.2989 10.7366 19.7678 10.2678C20.2366 9.79893 20.5 9.16304 20.5 8.5C20.5 7.83696 20.2366 7.20107 19.7678 6.73223C19.2989 6.26339 18.663 6 18 6M3.226 18C2.476 18 1.881 17.529 1.346 16.87C0.249999 15.52 2.049 14.44 2.735 13.913C3.432 13.376 4.21 13.07 5 13M5.5 11C4.83696 11 4.20107 10.7366 3.73223 10.2678C3.26339 9.79893 3 9.16304 3 8.5C3 7.83696 3.26339 7.20107 3.73223 6.73223C4.20107 6.26339 4.83696 6 5.5 6M8.084 15.111C7.062 15.743 4.383 17.033 6.014 18.647C6.813 19.436 7.7 20 8.817 20H15.185C16.302 20 17.189 19.436 17.986 18.647C19.618 17.033 16.939 15.743 15.917 15.111C14.7398 14.385 13.384 14.0005 12.001 14.0005C10.618 14.0005 9.26216 14.385 8.085 15.111M15.5 7.5C15.5 7.95963 15.4095 8.41475 15.2336 8.83939C15.0577 9.26403 14.7999 9.64987 14.4749 9.97487C14.1499 10.2999 13.764 10.5577 13.3394 10.7336C12.9148 10.9095 12.4596 11 12 11C11.5404 11 11.0852 10.9095 10.6606 10.7336C10.236 10.5577 9.85013 10.2999 9.52512 9.97487C9.20012 9.64987 8.94231 9.26403 8.76642 8.83939C8.59053 8.41475 8.5 7.95963 8.5 7.5C8.5 6.57174 8.86875 5.6815 9.52512 5.02513C10.1815 4.36875 11.0717 4 12 4C12.9283 4 13.8185 4.36875 14.4749 5.02513C15.1312 5.6815 15.5 6.57174 15.5 7.5Z" stroke="white" stroke-width="1.5" stroke-linecap="round" stroke-linejoin="round"/>
</svg>
